<?xml version="1.0" encoding="UTF-8" standalone="no"?>
<svg viewBox="0 0 24 24" version="1.1" id="svg1" sodipodi:docname="square-opacity.svg" inkscape:version="1.3.2 (091e20ef0f, 2023-11-25)" xmlns:inkscape="http://www.inkscape.org/namespaces/inkscape" xmlns:sodipodi="http://sodipodi.sourceforge.net/DTD/sodipodi-0.dtd" xmlns="http://www.w3.org/2000/svg" xmlns:svg="http://www.w3.org/2000/svg">
  <defs id="defs1" />
  <sodipodi:namedview id="namedview1" pagecolor="#505050" bordercolor="#eeeeee" borderopacity="1" inkscape:showpageshadow="0" inkscape:pageopacity="0" inkscape:pagecheckerboard="0" inkscape:deskcolor="#d1d1d1" inkscape:zoom="17.708333" inkscape:cx="12" inkscape:cy="12" inkscape:window-width="1920" inkscape:window-height="993" inkscape:window-x="1920" inkscape:window-y="0" inkscape:window-maximized="1" inkscape:current-layer="svg1" />
  <path d="M19 13V11H21V13H19M21 9V7H19V9H21M21 3H19V5H21V3M17 15H19V13H17V15M21 17V15H19V17H21M13 17V15H15V13H13V11H15V9H13V7H15V5H13V3H3V21H13V19H15V17H13M15 21H17V19H15V21M17 3H15V5H17V3M17 11H19V9H17V11M15 17H17V15H15V17M17 19H19V17H17V19M21 21V19H19V21H21M15 9H17V7H15V9M15 13H17V11H15V13M17 5V7H19V5H17Z" id="path1" style="fill:#f2f2f2" />
</svg>
